<svg width="180" height="42" viewBox="0 0 180 42" fill="none" xmlns="http://www.w3.org/2000/svg">
<path d="M25.8851 20.631C25.883 28.0154 21.8125 32.5041 16.148 32.5031C14.2182 32.5025 12.5398 31.9146 11.113 30.9908L11.1104 41.9007L2.71832 41.8986L2.72517 16.0938L0.333984 14.0374L11.1178 10.2632L11.1167 14.417C13.3413 12.1524 15.9434 10.684 18.4184 10.6845C22.6566 10.6855 25.8862 14.127 25.8851 20.631ZM16.9057 23.0206C16.9067 17.3977 15.6908 14.5863 12.8794 14.5858C12.2498 14.5852 11.7041 14.7529 11.1167 15.0044L11.113 30.278C11.7004 30.6977 12.4555 30.9075 13.1689 30.9081C15.3518 30.9086 16.9046 28.0555 16.9057 23.0206Z" fill="#FF0033"/>
<path d="M30.182 32.0381L30.1857 16.0997L27.7939 14.0433L38.5783 10.2691L38.573 32.0402L30.182 32.0381ZM29.7259 4.85558C29.7264 2.08581 31.4052 0.198165 34.3838 0.199219C37.3634 0.199746 39.0412 2.08791 39.0402 4.85768C39.0396 7.66911 37.3613 9.55622 34.3817 9.55569C31.4026 9.55516 29.7254 7.66647 29.7259 4.85558Z" fill="#FF0033"/>
<path d="M44.7678 32.0418L44.7735 6.45315L42.3818 4.39678L53.1662 0.622559L53.1588 32.0439L44.7678 32.0418Z" fill="#FF0033"/>
<path d="M76.1986 28.3207C74.4354 31.0056 71.624 32.5157 67.7216 32.5146C61.8056 32.5136 56.9394 28.4003 56.9404 21.8964C56.942 15.7705 61.0563 10.6945 67.7691 10.696C71.7125 10.6966 74.4396 13.0055 74.4385 16.0679C74.4385 19.5511 71.7515 22.614 66.7161 24.5006C69.1073 26.8507 72.1275 28.404 74.9389 28.4045C75.3592 28.4045 75.7783 28.3629 76.1564 28.279L76.1986 28.3207ZM62.1452 14.639C62.1441 18.1216 63.9479 21.6465 66.4646 24.2491C67.6399 22.7385 68.1012 21.0601 68.1018 18.9199C68.1028 15.2701 65.6705 12.1645 63.8662 12.164C62.7747 12.164 62.1457 13.0862 62.1452 14.639Z" fill="#FF0033"/>
<path d="M94.8173 28.2412C93.2645 30.7162 90.4952 32.52 86.6345 32.519C81.6412 32.5179 79.6703 29.5805 79.6713 24.1253L79.674 12.2089L76.4434 12.2084V12.1667L88.0682 3.02222L88.0666 10.5232L93.9831 10.5248L93.9821 12.2126L88.0661 12.211L88.0639 21.9877C88.0629 26.855 89.1955 28.6593 92.299 28.6599C93.2228 28.6604 93.9357 28.5349 94.7756 28.199L94.8173 28.2412Z" fill="#FF0033"/>
<path d="M97.5785 32.0538L97.5827 16.1154L95.1904 14.059L105.975 10.2848L105.969 32.0559L97.5785 32.0538ZM97.1234 4.87071C97.1234 2.10094 98.8023 0.213301 101.781 0.214356C104.76 0.214883 106.438 2.10305 106.437 4.87282C106.437 7.68424 104.758 9.57136 101.779 9.57083C98.8001 9.5703 97.1224 7.68161 97.1234 4.87071Z" fill="#FF0033"/>
<path d="M112.163 32.0576L112.168 6.46902L109.777 4.41213L120.561 0.638428L120.554 32.0597L112.163 32.0576Z" fill="#FF0033"/>
<path d="M143.468 28.3361C141.705 31.021 138.893 32.5311 134.991 32.53C129.075 32.529 124.209 28.4157 124.21 21.9118C124.212 15.7859 128.326 10.7098 135.039 10.7114C138.982 10.712 141.709 13.0209 141.708 16.0838C141.708 19.5665 139.021 22.6294 133.986 24.516C136.377 26.866 139.397 28.4194 142.208 28.4199C142.629 28.4204 143.048 28.3783 143.426 28.2944L143.468 28.3361ZM129.415 14.6549C129.414 18.1376 131.217 21.6624 133.734 24.265C134.909 22.7544 135.371 21.076 135.371 18.9358C135.372 15.2861 132.94 12.1804 131.135 12.1799C130.044 12.1794 129.415 13.1016 129.415 14.6549Z" fill="#FF0033"/>
<path d="M168.11 11.5588L165.299 13.6141L155.936 32.7452H154.845L145.955 13.6093L143.144 11.553L157.788 11.5561L154.976 13.6115L158.742 23.9745L163.158 13.6136L160.221 11.5572L168.11 11.5588Z" fill="#FF0033"/>
<path d="M171.142 32.0714L171.145 16.1329L168.754 14.0766L179.538 10.3023L179.533 32.0735L171.142 32.0714ZM170.685 4.88829C170.686 2.11852 172.365 0.230879 175.343 0.231934C178.322 0.232461 180.001 2.12063 180 4.8904C179.999 7.70182 178.32 9.58894 175.341 9.58841C172.363 9.58788 170.685 7.69919 170.685 4.88829Z" fill="#FF0033"/>
</svg>
